<?xml version="1.0" encoding="utf-8"?>
<!-- Generator: Adobe Illustrator 21.1.0, SVG Export Plug-In . SVG Version: 6.00 Build 0)  -->
<svg version="1.1" id="Layer_1" xmlns="http://www.w3.org/2000/svg" xmlns:xlink="http://www.w3.org/1999/xlink" x="0px" y="0px"
	 viewBox="0 0 640 480" style="enable-background:new 0 0 640 480;" xml:space="preserve">
<style type="text/css">
	.st0{fill:#FFFFFF;}
	.st1{fill:#99999A;}
	.st2{fill:#FFCE00;}
	.st3{fill:#111820;}
</style>
<g>
	<g id="XMLID_2687_">
		<path class="st0" d="M315.5,119.7c-13.3,0-35.2,2.8-63.6,16.4c-17,8.1-28.4,16.3-28.5,16.4l-0.6,0.4v0.7v154.3v0.8l0.7,0.4
			l95.1,49.8l0.6,0.3l0.6-0.3l95.1-49.8l0.7-0.4v-0.8V153.6v-0.8l-0.6-0.4c-0.1-0.1-12.8-8.3-31.4-16.4
			C366.6,128.6,340.9,119.7,315.5,119.7L315.5,119.7z"/>
	</g>
	<g id="XMLID_45832_">
		<path class="st1" d="M319.3,359.6l-0.8-0.4l-96-50.3V152.7l0.7-0.5c0.1-0.1,11.7-8.4,28.6-16.4c28.5-13.6,50.4-16.4,63.7-16.4
			c25.5,0,51.3,8.9,68.4,16.4c18.5,8.1,31.3,16.3,31.4,16.4l0.8,0.5v156.3l-0.9,0.5L319.3,359.6z M223.1,308.5l0.6,0.3l95.6,50.1
			l96.1-50.4V153l-0.5-0.3c-0.1-0.1-12.9-8.3-31.3-16.3c-17.1-7.5-42.8-16.3-68.2-16.3c-13.3,0-35.1,2.8-63.4,16.3
			c-16.8,8-28.4,16.3-28.5,16.3l-0.4,0.3V308.5z"/>
	</g>
	<g id="XMLID_35207_">
		<path class="st2" d="M243.5,164.6c8.7-5.4,40.6-23.5,72.7-23.5c30.3,0,61.8,14.6,75.1,21.5l8.7-7.3c-11.1-6.2-47.5-24.7-83.8-24.7
			c-40.6,0-79.3,25.7-80.9,26.8l-2.3,1.6v137.8l10.5-8.9V164.6z"/>
	</g>
	<g id="XMLID_35152_">
		<polygon class="st3" points="395.3,173 395.3,296.7 319.4,336.4 247.1,298.6 238.4,305.9 319.4,348.3 405.8,303.1 405.8,164.1 		
			"/>
	</g>
	<g>
		<g id="XMLID_35148_">
			<path class="st3" d="M272.4,182v5.6c-0.5-0.6-1.1-1.1-1.8-1.5c-0.7-0.3-1.5-0.5-2.3-0.5c-1.4,0-2.6,0.5-3.5,1.4
				c-0.9,1-1.3,2.2-1.3,3.6c0,1.4,0.5,2.6,1.4,3.5s2.1,1.4,3.5,1.4c0.8,0,1.5-0.2,2.2-0.5c0.7-0.3,1.3-0.8,1.8-1.4v5.6
				c-1.8,0.6-3.2,0.8-4.1,0.8c-2.6,0-4.8-0.9-6.8-2.7c-1.9-1.7-2.9-4-2.9-6.8c0-2.6,0.9-4.8,2.7-6.6c0.9-0.9,2-1.6,3.2-2.1
				c1.2-0.5,2.5-0.8,3.7-0.8C269.5,181.1,271,181.4,272.4,182z"/>
		</g>
		<g id="XMLID_35145_">
			<path class="st3" d="M286.2,196.5h-6.5l-1.2,3.1h-5l7-18.1h5.1l6.8,18.1h-5L286.2,196.5z M284.9,192.9l-1.9-5.8h0l-1.9,5.8H284.9
				z"/>
		</g>
		<g id="XMLID_35143_">
			<path class="st3" d="M298.3,181.5v14.1h5.6v4h-10.3v-18.1H298.3z"/>
		</g>
		<g id="XMLID_35141_">
			<path class="st3" d="M323.3,182.5l-1.9,3.6c-1-0.8-2-1.2-3.1-1.2c-0.5,0-1,0.1-1.4,0.4c-0.4,0.3-0.6,0.6-0.6,1.1
				c0,0.3,0.1,0.6,0.4,0.9c0.3,0.3,0.5,0.4,0.7,0.5c0.2,0.1,0.5,0.2,0.9,0.3l1.2,0.4c1.4,0.4,2.5,1,3.3,1.8c0.8,0.8,1.2,1.8,1.2,3.2
				c0,2.2-0.6,3.8-1.9,4.9c-1.3,1.1-3.1,1.7-5.1,1.7c-2.3,0-4.4-0.7-6.4-2.1l2-3.8c1.4,1.2,2.8,1.9,4.2,1.9c0.6,0,1.1-0.2,1.6-0.5
				c0.5-0.3,0.7-0.8,0.7-1.4c0-0.8-0.8-1.4-2.3-1.9c0,0-0.2-0.1-0.6-0.2c-0.9-0.2-1.5-0.5-2-0.7c-0.5-0.2-1-0.5-1.5-0.9
				c-0.5-0.4-0.8-0.9-1.1-1.4c-0.2-0.6-0.3-1.3-0.3-2.1c0-1.8,0.6-3.3,1.8-4.4c1.2-1.1,2.7-1.7,4.5-1.7c0.9,0,1.9,0.1,2.9,0.4
				C321.6,181.7,322.5,182.1,323.3,182.5z"/>
		</g>
		<g id="XMLID_35139_">
			<path class="st3" d="M333.2,185.5v14.1h-4.7v-14.1h-3.9v-4h12.5v4H333.2z"/>
		</g>
		<g id="XMLID_35136_">
			<path class="st3" d="M348.2,196.5h-6.5l-1.2,3.1h-5l7-18.1h5.1l6.8,18.1h-5L348.2,196.5z M346.9,192.9l-1.9-5.8h0l-1.9,5.8H346.9
				z"/>
		</g>
		<g id="XMLID_35134_">
			<path class="st3" d="M361.4,185.5v14.1h-4.7v-14.1h-3.9v-4h12.5v4H361.4z"/>
		</g>
		<g id="XMLID_2694_">
			<path class="st3" d="M377,185.5h-5.6v3h3.5v4h-3.5v3.1h5.6v4h-10.3v-18.1H377V185.5z"/>
		</g>
	</g>
	<g>
		<g>
			<path class="st3" d="M378.4,276.4c-5.5,0-7.6-3.5-11.9-15.5l-15.4-43.6c-0.5-1.3-0.9-1.6-2.4-1.6h-13.5c-0.8,0-1.2,0.6-1.2,1.1
				c0,0.6,0.4,1.1,1.1,1.1c2.9,0,5.3,0.2,6.4,2.6l1.8,4.3l-17.3,41.7c-3,7.1-4.8,9.9-9.7,9.9c-0.9,0-1.5,0.6-1.5,1.1
				c0,0.6,0.6,1.2,1.8,1.2h19.8c1.2,0,1.6-0.5,1.6-1.1c0-0.6-0.6-1.2-1.3-1.2c-6.4,0-8.3-1.7-8.3-3.9c0-0.7,0.2-1.3,0.4-2l15.9-42
				l8,22.4h-12.4l-1.2,3.2H354l3.9,10.7c1.2,3.5,2,6,2,7.8c0,3-2.1,3.8-7.5,3.8c-1,0-1.5,0.7-1.5,1.2c0,0.5,0.4,1,1.2,1h26.6
				c0.8,0,1.2-0.5,1.2-1C380,277,379.5,276.4,378.4,276.4z"/>
		</g>
		<g>
			<path class="st3" d="M269.1,244.7c0-11.3-0.3-17.9-0.5-20.2c-0.4-4.8-2.3-6.5-6.6-6.5c-1,0-1.3-0.5-1.3-1s0.2-1.2,1-1.2h24.2
				c0.8,0,1,0.5,1,1.1s-0.2,1.2-1.3,1.2c-4.5,0-5.7,1.6-6.3,6.5c-0.3,2.3-0.5,9-0.5,20.1v11.3c0,5.8,0,9.4,0.2,11.7
				c0.5,4.6,4.1,8.4,12,8.7c0,0,5.3,0,5.4,0c8.2-0.3,13.3-5.9,15.9-14.6c0.2-0.9,1-1.3,1.7-1.1c0.6,0.2,0.9,0.3,0.9,1
				c0,1.5-5.1,14.2-5.6,15.7c-0.2,0.9-1.1,1.5-2,1.5h-45.6c-0.8,0-1.1-0.5-1.1-1c0-0.6,0.2-1.2,1-1.2c3.5,0,6.5-2,6.9-6.8
				c0.2-2.3,0.5-8.1,0.5-19.5V244.7z"/>
		</g>
	</g>
</g>
</svg>
